<?xml version="1.0" encoding="utf-8"?>
<svg width="32" height="32" viewBox="0 0 32 32" fill="none" xmlns="http://www.w3.org/2000/svg">
    <g clip-path="url(#clip0_87_1490)">
    	<path d="M16 32C24.8375 32 32 24.8375 32 16C32 7.1625 24.8375 0 16 0C7.1625 0 0 7.1625 0 16C0 24.8375 7.1625 32 16 32ZM10.9375 10.9375C11.525 10.35 12.475 10.35 13.0562 10.9375L15.9937 13.875L18.9312 10.9375C19.5187 10.35 20.4688 10.35 21.05 10.9375C21.6312 11.525 21.6375 12.475 21.05 13.0562L18.1125 15.9937L21.05 18.9312C21.6375 19.5187 21.6375 20.4688 21.05 21.05C20.4625 21.6312 19.5125 21.6375 18.9312 21.05L15.9937 18.1125L13.0562 21.05C12.4688 21.6375 11.5188 21.6375 10.9375 21.05C10.3562 20.4625 10.35 19.5125 10.9375 18.9312L13.875 15.9937L10.9375 13.0562C10.35 12.4688 10.35 11.5188 10.9375 10.9375Z" fill="#313131" fill-opacity="0.3"/>
    </g>
    <defs>
        <clipPath id="clip0_87_1490">
        	<rect width="32" height="32" fill="white"/>
        </clipPath>
    </defs>
</svg>